<svg width="44" height="44" viewBox="0 0 44 44" fill="none" xmlns="http://www.w3.org/2000/svg">
<circle cx="22" cy="22" r="21" fill="white"/>
<circle cx="22" cy="22" r="20.5" stroke="#998E95" stroke-opacity="0.3"/>
<path d="M42.6473 22C43.3944 22 44.0043 22.6063 43.9584 23.3519C43.6593 28.2131 41.7533 32.8524 38.5201 36.5288C34.9883 40.5447 30.1146 43.1366 24.8104 43.8197C19.5063 44.5029 14.1348 43.2306 9.70067 40.2408C5.2665 37.2509 2.07324 32.7483 0.718053 27.5748C-0.637137 22.4014 -0.0614513 16.9114 2.33745 12.1317C4.73636 7.35187 8.7942 3.60957 13.7521 1.60459C18.7101 -0.400389 24.2286 -0.530746 29.2757 1.2379C33.896 2.85701 37.8316 5.96609 40.4756 10.0563C40.8812 10.6837 40.6468 11.5112 39.9957 11.8774C39.3446 12.2437 38.5238 12.0096 38.1128 11.3858C35.7951 7.86722 32.3806 5.19261 28.381 3.79103C23.9545 2.23988 19.1146 2.35421 14.7664 4.11263C10.4181 5.87106 6.85928 9.15316 4.75537 13.3452C2.65146 17.5372 2.14657 22.352 3.33511 26.8893C4.52365 31.4265 7.32423 35.3755 11.2131 37.9977C15.102 40.6199 19.8129 41.7357 24.4648 41.1366C29.1168 40.5374 33.3911 38.2642 36.4886 34.7422C39.2874 31.5597 40.9522 27.5546 41.2473 23.3516C41.2996 22.6064 41.9003 22 42.6473 22Z" fill="#FFA300"/>
<path d="M22 16.4297C22.6562 16.4297 23.2604 16.5312 23.8125 16.7344C24.3698 16.9375 24.8151 17.2448 25.1484 17.6562C25.4818 18.0625 25.6484 18.5729 25.6484 19.1875C25.6484 19.6458 25.5573 20.0469 25.375 20.3906C25.1979 20.7344 24.9557 21.0365 24.6484 21.2969C24.3411 21.5521 23.9922 21.776 23.6016 21.9688C24.0078 22.1823 24.3932 22.4323 24.7578 22.7188C25.1224 23 25.4193 23.3307 25.6484 23.7109C25.8828 24.0911 26 24.5339 26 25.0391C26 25.6745 25.8307 26.2266 25.4922 26.6953C25.1536 27.1589 24.6849 27.5182 24.0859 27.7734C23.487 28.0286 22.7917 28.1562 22 28.1562C21.1458 28.1562 20.4193 28.0339 19.8203 27.7891C19.2214 27.5443 18.7656 27.1953 18.4531 26.7422C18.1406 26.2839 17.9844 25.737 17.9844 25.1016C17.9844 24.5807 18.0807 24.1276 18.2734 23.7422C18.4714 23.3568 18.737 23.026 19.0703 22.75C19.4036 22.4688 19.7708 22.2292 20.1719 22.0312C19.8333 21.8177 19.5234 21.5755 19.2422 21.3047C18.9661 21.0339 18.7448 20.724 18.5781 20.375C18.4167 20.026 18.3359 19.625 18.3359 19.1719C18.3359 18.5677 18.5052 18.0625 18.8438 17.6562C19.1875 17.25 19.638 16.9453 20.1953 16.7422C20.7526 16.5339 21.3542 16.4297 22 16.4297ZM20.2188 24.9609C20.2188 25.3724 20.3646 25.7135 20.6562 25.9844C20.9531 26.25 21.3906 26.3828 21.9688 26.3828C22.5677 26.3828 23.0156 26.2552 23.3125 26C23.6094 25.7396 23.7578 25.3984 23.7578 24.9766C23.7578 24.6849 23.6719 24.4297 23.5 24.2109C23.3333 23.9922 23.1224 23.7969 22.8672 23.625C22.612 23.4479 22.3542 23.2839 22.0938 23.1328L21.8828 23.0234C21.5495 23.1745 21.2578 23.3438 21.0078 23.5312C20.763 23.7188 20.5703 23.9297 20.4297 24.1641C20.2891 24.3984 20.2188 24.6641 20.2188 24.9609ZM21.9844 18.1953C21.5885 18.1953 21.2604 18.2969 21 18.5C20.7396 18.7031 20.6094 18.9896 20.6094 19.3594C20.6094 19.6198 20.6719 19.849 20.7969 20.0469C20.9271 20.2396 21.0964 20.4089 21.3047 20.5547C21.5182 20.7005 21.75 20.8359 22 20.9609C22.2396 20.8464 22.4635 20.7188 22.6719 20.5781C22.8802 20.4375 23.0495 20.2682 23.1797 20.0703C23.3099 19.8724 23.375 19.6354 23.375 19.3594C23.375 18.9896 23.2422 18.7031 22.9766 18.5C22.7161 18.2969 22.3854 18.1953 21.9844 18.1953Z" fill="#FFA300"/>
</svg>
