<svg width="19" height="19" viewBox="0 0 19 19" fill="none" xmlns="http://www.w3.org/2000/svg">
<g clip-path="url(#clip0_64_2965)">
<path d="M9.5 0C10.1568 0 10.6875 0.530664 10.6875 1.1875V2.4752C13.6711 2.97246 16.0275 5.32891 16.5248 8.3125H17.8125C18.4693 8.3125 19 8.84316 19 9.5C19 10.1568 18.4693 10.6875 17.8125 10.6875H16.5248C16.0275 13.6711 13.6711 16.0275 10.6875 16.5248V17.8125C10.6875 18.4693 10.1568 19 9.5 19C8.84316 19 8.3125 18.4693 8.3125 17.8125V16.5248C5.32891 16.0275 2.97246 13.6711 2.4752 10.6875H1.1875C0.530664 10.6875 0 10.1568 0 9.5C0 8.84316 0.530664 8.3125 1.1875 8.3125H2.4752C2.97246 5.32891 5.32891 2.97246 8.3125 2.4752V1.1875C8.3125 0.530664 8.84316 0 9.5 0ZM4.75 9.5C4.75 12.1236 6.87637 14.25 9.5 14.25C12.1236 14.25 14.25 12.1236 14.25 9.5C14.25 6.87637 12.1236 4.75 9.5 4.75C6.87637 4.75 4.75 6.87637 4.75 9.5ZM9.5 12.4688C7.85977 12.4688 6.53125 11.1402 6.53125 9.5C6.53125 7.85977 7.85977 6.53125 9.5 6.53125C11.1402 6.53125 12.4688 7.85977 12.4688 9.5C12.4688 11.1402 11.1402 12.4688 9.5 12.4688Z" fill="#FFA300"/>
</g>
<defs>
<clipPath id="clip0_64_2965">
<rect width="19" height="19" fill="white"/>
</clipPath>
</defs>
</svg>
