<svg width="19" height="12" viewBox="0 0 19 12" fill="none" xmlns="http://www.w3.org/2000/svg">
<path d="M0 2C0 0.896875 0.946701 0 2.11111 0H10.5556C11.72 0 12.6667 0.896875 12.6667 2V10C12.6667 11.1031 11.72 12 10.5556 12H2.11111C0.946701 12 0 11.1031 0 10V2ZM18.4425 1.11875C18.7856 1.29375 19 1.63125 19 2V10C19 10.3687 18.7856 10.7063 18.4425 10.8813C18.0995 11.0563 17.6839 11.0375 17.3573 10.8313L14.1906 8.83125L13.7222 8.53438V8V4V3.46562L14.1906 3.16875L17.3573 1.16875C17.6806 0.965625 18.0962 0.94375 18.4425 1.11875Z" fill="white"/>
</svg>
